<?xml version="1.0" encoding="UTF-8" standalone="no"?>
<!-- Created with Inkscape (http://www.inkscape.org/) -->

<svg
   width="48"
   height="48"
   viewBox="0 0 48 48"
   version="1.1"
   id="svg1"
   xml:space="preserve"
   inkscape:version="1.3.2 (091e20ef0f, 2023-11-25)"
   sodipodi:docname="estacion.svg"
   inkscape:export-filename="estacionVandalizada.svg"
   inkscape:export-xdpi="96"
   inkscape:export-ydpi="96"
   xmlns:inkscape="http://www.inkscape.org/namespaces/inkscape"
   xmlns:sodipodi="http://sodipodi.sourceforge.net/DTD/sodipodi-0.dtd"
   xmlns="http://www.w3.org/2000/svg"
   xmlns:svg="http://www.w3.org/2000/svg"><sodipodi:namedview
     id="namedview1"
     pagecolor="#505050"
     bordercolor="#eeeeee"
     borderopacity="1"
     inkscape:showpageshadow="0"
     inkscape:pageopacity="0"
     inkscape:pagecheckerboard="0"
     inkscape:deskcolor="#505050"
     inkscape:document-units="px"
     inkscape:zoom="5.6568543"
     inkscape:cx="28.902989"
     inkscape:cy="13.965359"
     inkscape:window-width="1052"
     inkscape:window-height="739"
     inkscape:window-x="302"
     inkscape:window-y="1"
     inkscape:window-maximized="0"
     inkscape:current-layer="layer1" /><defs
     id="defs1">                       </defs><g
     inkscape:label="Capa 1"
     inkscape:groupmode="layer"
     id="layer1"><g
       style="display:inline;fill:#ffffff;stroke:#ffffff;stroke-width:0.00064"
       id="g1"
       transform="matrix(0.86864303,0,0,0.80838892,-5.6384868,-1.7789678)"
       inkscape:label="Operativa y logo"
       sodipodi:insensitive="true"><g
         id="SVGRepo_tracerCarrier"
         stroke-linecap="round"
         stroke-linejoin="round"
         stroke="#000000"
         stroke-width="0.128"
         style="display:inline">                    <path
   d="m 43.2,14.3 c -1.1,-0.5 -2.3,-0.4 -3.4,0 -1.1,0.5 -1.9,1.3 -2.3,2.3 L 30.4,13.2 26.9,5 C 26.8,4.8 26.6,4.6 26.4,4.5 c -0.2,-0.1 -0.5,-0.1 -0.8,0 -9.5,4 -14,15 -9.9,24.6 0.9,2 2,3.8 3.5,5.4 V 42 c -3.9,1.6 -6.6,5.1 -6.9,9 H 12 c -2.8,0 -5,2.2 -5,5 v 4 c 0,0.6 0.4,1 1,1 h 32 c 0.6,0 1,-0.4 1,-1 v -4 c 0,-2.8 -2.2,-5 -5,-5 h -0.1 c -0.4,-3.9 -3,-7.3 -6.9,-9 v -1.9 c 1.2,0.3 2.5,0.4 3.7,0.4 2.5,0 5,-0.5 7.3,-1.5 0.5,-0.2 0.7,-0.8 0.5,-1.3 L 37,29.5 39.6,22.6 c 0,0 0.1,0 0.1,0.1 0.5,0.2 1.1,0.3 1.7,0.3 0.6,0 1.2,-0.1 1.8,-0.4 2.3,-1 3.4,-3.6 2.4,-5.9 -0.4,-1.1 -1.3,-1.9 -2.4,-2.4 z M 21,28 c 0,-1.7 1.3,-3 3,-3 1.7,0 3,1.3 3,3 v 17 c 0,1.7 -1.3,3 -3,3 -1.7,0 -3,-1.3 -3,-3 z m 18,28 v 3 H 9 v -3 c 0,-1.7 1.3,-3 3,-3 h 24 c 1.7,0 3,1.3 3,3 z M 33.9,51 H 14.1 c 0.3,-2.9 2.2,-5.4 4.9,-6.8 V 45 c 0,2.8 2.2,5 5,5 2.8,0 5,-2.2 5,-5 v -0.8 c 2.8,1.4 4.6,3.9 4.9,6.8 z M 29,38.1 V 28 c 0,-2.8 -2.2,-5 -5,-5 -2.8,0 -5,2.2 -5,5 v 3.3 c -0.6,-0.9 -1.2,-1.9 -1.7,-3 -3.5,-8.2 0.1,-17.6 8,-21.5 l 3.2,7.6 c 0,0 0,0 0,0 L 35,29.9 c 0,0 0,0 0,0 l 3.2,7.6 c -2.9,1.1 -6.1,1.3 -9.2,0.6 z m 2.4,-22 5.6,2.6 c 0,0.5 0.1,1 0.3,1.5 0.2,0.4 0.4,0.8 0.7,1.1 l -2,5.5 z m 11.1,4.7 c -0.6,0.3 -1.3,0.3 -1.9,0 -0.6,-0.3 -1.1,-0.7 -1.4,-1.3 -0.5,-1.3 0.1,-2.7 1.3,-3.3 0.3,-0.1 0.6,-0.2 1,-0.2 0.3,0 0.6,0.1 0.9,0.2 0.6,0.3 1.1,0.7 1.4,1.3 0.5,1.3 -0.1,2.8 -1.3,3.3 z"
   id="path1"
   style="display:inline;fill:#ffffff;fill-opacity:1;stroke:#040404;stroke-width:0.473941;stroke-dasharray:none;stroke-opacity:1" /> <g
   id="g5"
   style="display:none;fill:#ffffff;stroke:#040404;stroke-width:0.475126;stroke-dasharray:none;stroke-opacity:1"
   inkscape:label="señal"><path
     d="m 43.5,10.2 c -0.5,-0.1 -1.1,0.2 -1.2,0.8 -0.1,0.5 0.2,1.1 0.8,1.2 1.9,0.4 3.4,1.7 4.2,3.5 0.8,1.8 0.6,3.8 -0.4,5.4 -0.3,0.5 -0.2,1.1 0.3,1.4 0.2,0.1 0.4,0.2 0.5,0.2 0.3,0 0.7,-0.2 0.8,-0.5 1.4,-2.2 1.6,-4.9 0.6,-7.3 -1,-2.4 -3.1,-4.2 -5.6,-4.7 z"
     id="path2"
     style="display:inline;fill:#00ff00;stroke:#040404;stroke-width:0.475126;stroke-dasharray:none;stroke-opacity:1" /><path
     d="m 45,6.6 c -0.5,-0.1 -1.1,0.2 -1.2,0.7 -0.1,0.5 0.2,1.1 0.7,1.2 2.8,0.8 5.1,2.8 6.3,5.6 1.2,2.8 1.1,5.9 -0.4,8.5 -0.3,0.5 -0.1,1.1 0.4,1.4 0.2,0.1 0.3,0.1 0.5,0.1 0.4,0 0.7,-0.2 0.9,-0.5 1.7,-3.1 1.9,-6.8 0.4,-10.2 C 51.2,10 48.4,7.6 45,6.6 Z"
     id="path3"
     style="display:inline;fill:#00ff00;stroke:#040404;stroke-width:0.475126;stroke-dasharray:none;stroke-opacity:1" /><path
     d="M 56,11.9 C 54.2,7.6 50.7,4.4 46.3,3 45.8,2.8 45.2,3.1 45,3.6 c -0.2,0.5 0.1,1.1 0.6,1.3 3.8,1.2 6.9,4.1 8.4,7.8 1.6,3.7 1.5,7.9 -0.3,11.5 -0.2,0.5 0,1.1 0.5,1.3 0.1,0.1 0.3,0.1 0.4,0.1 0.4,0 0.7,-0.2 0.9,-0.6 2.2,-4 2.3,-8.8 0.5,-13.1 z"
     id="path4"
     style="display:inline;fill:#00ff00;stroke:#040404;stroke-width:0.475126;stroke-dasharray:none;stroke-opacity:1" /></g></g></g><g
       id="g3"
       transform="matrix(0.46521618,-0.77266532,0.79561105,0.51496693,12.879399,36.049475)"
       style="display:none;fill:#ff0000"
       inkscape:label="No Operativa"><g
         id="SVGRepo_tracerCarrier-2"
         stroke-linecap="round"
         stroke-linejoin="round"
         stroke="#000000"
         stroke-width="0.72"
         transform="rotate(56.182696,29.412656,35.962976)"
         style="display:inline;fill:#ff0000"><path
           d="M 1.33309,8.07433 C 0.92156,8.44266 0.886539,9.07485 1.25487,9.48638 1.62319,9.89791 2.25539,9.93293 2.66691,9.5646 Z M 21.3331,9.5646 c 0.4115,0.36833 1.0437,0.33331 1.412,-0.07822 0.3684,-0.41153 0.3333,-1.04372 -0.0782,-1.41205 z M 12,19 c -0.5523,0 -1,0.4477 -1,1 0,0.5523 0.4477,1 1,1 z m 0.01,2 c 0.5523,0 1,-0.4477 1,-1 0,-0.5523 -0.4477,-1 -1,-1 z m 2.6805,-3.96 c 0.4085,0.3716 1.041,0.3417 1.4126,-0.0668 0.3717,-0.4086 0.3417,-1.041 -0.0668,-1.4127 z m 3.3634,-3.6997 c 0.4085,0.3716 1.041,0.3417 1.4126,-0.0669 0.3716,-0.4085 0.3417,-1.041 -0.0668,-1.4126 z M 7.96372,15.5605 C 7.55517,15.9322 7.52524,16.5646 7.89687,16.9732 8.2685,17.3817 8.90095,17.4116 9.3095,17.04 Z M 4.60034,11.8608 c -0.40855,0.3716 -0.43849,1.0041 -0.06686,1.4126 0.37163,0.4086 1.00408,0.4385 1.41263,0.0669 z M 10.5705,4.06305 C 10.0204,4.1118 9.61391,4.59729 9.66266,5.14741 9.71141,5.69754 10.1969,6.10399 10.747,6.05525 Z m 6.7688,6.31675 c -0.4826,-0.2684 -1.0915,-0.0948 -1.3599,0.3879 -0.2684,0.4827 -0.0947,1.0916 0.3879,1.36 z M 3.70711,2.29289 c -0.39053,-0.39052 -1.02369,-0.39052 -1.41422,0 -0.39052,0.39053 -0.39052,1.02369 0,1.41422 z M 20.2929,21.7071 c 0.3905,0.3905 1.0237,0.3905 1.4142,0 0.3905,-0.3905 0.3905,-1.0237 0,-1.4142 z M 12,6 c 3.5863,0 6.8556,1.34716 9.3331,3.5646 L 22.6669,8.07433 C 19.8369,5.54138 16.0972,4 12,4 Z m 0,15 h 0.01 V 19 H 12 Z m 0,-5 c 1.0367,0 1.9793,0.3931 2.6905,1.04 l 1.3458,-1.4795 C 14.9713,14.5918 13.5536,14 12,14 Z M 9.3095,17.04 C 10.0207,16.3931 10.9633,16 12,16 v -2 c -1.5536,0 -2.97128,0.5918 -4.03628,1.5605 z M 10.747,6.05525 C 11.1596,6.01869 11.5775,6 12,6 V 4 c -0.4815,0 -0.9583,0.0213 -1.4295,0.06305 z m 5.6203,6.07245 c 0.6084,0.3383 1.1739,0.7463 1.6866,1.2126 l 1.3458,-1.4795 c -0.6246,-0.5681 -1.3153,-1.0667 -2.0604,-1.481 z M 2.29289,3.70711 5.46648,6.8807 6.8807,5.46648 3.70711,2.29289 Z M 2.66691,9.5646 C 3.81213,8.53961 5.12648,7.70074 6.56232,7.09494 L 5.78486,5.25224 C 4.14251,5.94517 2.64069,6.904 1.33309,8.07433 Z M 5.46648,6.8807 9.46042,10.8746 10.8746,9.46042 6.8807,5.46648 Z M 9.46042,10.8746 20.2929,21.7071 21.7071,20.2929 10.8746,9.46042 Z M 5.94611,13.3403 C 7.15939,12.2367 8.67355,11.4612 10.3496,11.1508 L 9.98543,9.18424 C 7.93271,9.5644 6.08108,10.5139 4.60034,11.8608 Z"
           fill="#ffffff"
           id="path1-7"
           style="display:inline;fill:#ff0000" /></g><g
         id="SVGRepo_iconCarrier"
         transform="rotate(56.182696,29.412656,35.962976)"
         style="display:inline;fill:#ff0000"><path
           d="M 1.33309,8.07433 C 0.92156,8.44266 0.886539,9.07485 1.25487,9.48638 1.62319,9.89791 2.25539,9.93293 2.66691,9.5646 Z M 21.3331,9.5646 c 0.4115,0.36833 1.0437,0.33331 1.412,-0.07822 0.3684,-0.41153 0.3333,-1.04372 -0.0782,-1.41205 z M 12,19 c -0.5523,0 -1,0.4477 -1,1 0,0.5523 0.4477,1 1,1 z m 0.01,2 c 0.5523,0 1,-0.4477 1,-1 0,-0.5523 -0.4477,-1 -1,-1 z m 2.6805,-3.96 c 0.4085,0.3716 1.041,0.3417 1.4126,-0.0668 0.3717,-0.4086 0.3417,-1.041 -0.0668,-1.4127 z m 3.3634,-3.6997 c 0.4085,0.3716 1.041,0.3417 1.4126,-0.0669 0.3716,-0.4085 0.3417,-1.041 -0.0668,-1.4126 z M 7.96372,15.5605 C 7.55517,15.9322 7.52524,16.5646 7.89687,16.9732 8.2685,17.3817 8.90095,17.4116 9.3095,17.04 Z M 4.60034,11.8608 c -0.40855,0.3716 -0.43849,1.0041 -0.06686,1.4126 0.37163,0.4086 1.00408,0.4385 1.41263,0.0669 z M 10.5705,4.06305 C 10.0204,4.1118 9.61391,4.59729 9.66266,5.14741 9.71141,5.69754 10.1969,6.10399 10.747,6.05525 Z m 6.7688,6.31675 c -0.4826,-0.2684 -1.0915,-0.0948 -1.3599,0.3879 -0.2684,0.4827 -0.0947,1.0916 0.3879,1.36 z M 3.70711,2.29289 c -0.39053,-0.39052 -1.02369,-0.39052 -1.41422,0 -0.39052,0.39053 -0.39052,1.02369 0,1.41422 z M 20.2929,21.7071 c 0.3905,0.3905 1.0237,0.3905 1.4142,0 0.3905,-0.3905 0.3905,-1.0237 0,-1.4142 z M 12,6 c 3.5863,0 6.8556,1.34716 9.3331,3.5646 L 22.6669,8.07433 C 19.8369,5.54138 16.0972,4 12,4 Z m 0,15 h 0.01 V 19 H 12 Z m 0,-5 c 1.0367,0 1.9793,0.3931 2.6905,1.04 l 1.3458,-1.4795 C 14.9713,14.5918 13.5536,14 12,14 Z M 9.3095,17.04 C 10.0207,16.3931 10.9633,16 12,16 v -2 c -1.5536,0 -2.97128,0.5918 -4.03628,1.5605 z M 10.747,6.05525 C 11.1596,6.01869 11.5775,6 12,6 V 4 c -0.4815,0 -0.9583,0.0213 -1.4295,0.06305 z m 5.6203,6.07245 c 0.6084,0.3383 1.1739,0.7463 1.6866,1.2126 l 1.3458,-1.4795 c -0.6246,-0.5681 -1.3153,-1.0667 -2.0604,-1.481 z M 2.29289,3.70711 5.46648,6.8807 6.8807,5.46648 3.70711,2.29289 Z M 2.66691,9.5646 C 3.81213,8.53961 5.12648,7.70074 6.56232,7.09494 L 5.78486,5.25224 C 4.14251,5.94517 2.64069,6.904 1.33309,8.07433 Z M 5.46648,6.8807 9.46042,10.8746 10.8746,9.46042 6.8807,5.46648 Z M 9.46042,10.8746 20.2929,21.7071 21.7071,20.2929 10.8746,9.46042 Z M 5.94611,13.3403 C 7.15939,12.2367 8.67355,11.4612 10.3496,11.1508 L 9.98543,9.18424 C 7.93271,9.5644 6.08108,10.5139 4.60034,11.8608 Z"
           fill="#ffffff"
           id="path2-0"
           style="display:inline;fill:#ff0000" /></g></g><g
       id="g47"
       transform="matrix(0.07514092,0,0,0.07200696,37.747094,10.811738)"
       style="display:none;fill:#ffff00;stroke:#030303;stroke-width:6.44396;stroke-dasharray:none;stroke-opacity:1"
       inkscape:label="Infraestructura"><g
         id="SVGRepo_iconCarrier-4"
         transform="translate(-144,-146)"
         style="fill:#ffff00;stroke:#030303;stroke-width:6.44396;stroke-dasharray:none;stroke-opacity:1"> <g
   id="g6"
   style="fill:#ffff00;stroke:#030303;stroke-width:6.44396;stroke-dasharray:none;stroke-opacity:1"> <path
   d="m 251.879,164.637 21.413,0.36 v 110.979 c 0,0.205 -0.152,0.363 -0.347,0.363 l -21.428,-0.363 z"
   id="path1-5"
   style="fill:#ffff00;stroke:#030303;stroke-width:6.44396;stroke-dasharray:none;stroke-opacity:1" /> <polygon
   points="95.321,164.632 122.957,164.632 150.143,164.997 149.778,184.502 122.957,184.502 94.962,184.134 "
   id="polygon1"
   style="fill:#ffff00;stroke:#030303;stroke-width:6.44396;stroke-dasharray:none;stroke-opacity:1" /> <path
   d="m 95.311,245.735 c -0.113,0 -0.215,0.031 -0.328,0.031 l -0.027,-0.398 0.359,-19.497 h 27.828 l 26.99,0.358 -0.36,19.495 z"
   id="path2-03"
   style="fill:#ffff00;stroke:#030303;stroke-width:6.44396;stroke-dasharray:none;stroke-opacity:1" /> <path
   d="m 94.962,214.754 0.359,-19.503 h 27.636 l 27.195,0.363 -0.369,19.496 -54.462,0.01 c -0.112,0 -0.22,0.033 -0.338,0.033 z"
   id="path3-6"
   style="fill:#ffff00;stroke:#030303;stroke-width:6.44396;stroke-dasharray:none;stroke-opacity:1" /> <polygon
   points="122.962,276.345 122.952,276.351 95.321,276.351 95.321,281.726 94.956,275.987 95.321,256.486 123.153,256.481 150.143,256.843 149.778,276.345 "
   id="polygon3"
   style="fill:#ffff00;stroke:#030303;stroke-width:6.44396;stroke-dasharray:none;stroke-opacity:1" /> <path
   d="m 127.922,331.925 v -39.513 c 0.263,-0.634 0.405,-1.321 0.405,-2.046 v -3.265 h 21.446 c 6.135,0 11.116,-4.988 11.116,-11.114 v -19.145 c 0,-0.943 -0.149,-1.837 -0.37,-2.72 -0.071,-0.252 -0.149,-0.493 -0.236,-0.745 -0.215,-0.649 -0.483,-1.26 -0.805,-1.857 -0.077,-0.127 -0.108,-0.295 -0.185,-0.42 0.066,-0.104 0.087,-0.227 0.145,-0.336 0.357,-0.641 0.646,-1.308 0.871,-2.006 0.077,-0.229 0.148,-0.45 0.205,-0.682 0.226,-0.883 0.375,-1.786 0.375,-2.719 l -0.005,-19.142 c 0,-0.938 -0.149,-1.841 -0.375,-2.714 -0.066,-0.25 -0.144,-0.486 -0.226,-0.729 -0.215,-0.66 -0.488,-1.275 -0.812,-1.867 -0.076,-0.138 -0.102,-0.289 -0.178,-0.41 0.077,-0.125 0.103,-0.273 0.168,-0.398 0.344,-0.62 0.627,-1.265 0.843,-1.942 0.082,-0.241 0.163,-0.478 0.22,-0.725 0.216,-0.872 0.36,-1.763 0.36,-2.677 l 0.005,-19.14 c 0,-0.95 -0.149,-1.854 -0.375,-2.729 -0.066,-0.252 -0.144,-0.482 -0.226,-0.725 -0.215,-0.656 -0.483,-1.271 -0.805,-1.869 -0.082,-0.13 -0.113,-0.294 -0.189,-0.431 0.082,-0.131 0.113,-0.294 0.189,-0.424 0.322,-0.589 0.585,-1.203 0.795,-1.844 0.087,-0.252 0.165,-0.493 0.236,-0.751 0.221,-0.877 0.37,-1.769 0.37,-2.714 l 0.005,-19.136 c 0,-0.746 -0.079,-1.478 -0.221,-2.181 -0.047,-0.242 -0.139,-0.462 -0.202,-0.699 -0.124,-0.451 -0.244,-0.908 -0.42,-1.338 -0.113,-0.271 -0.262,-0.512 -0.394,-0.775 -0.182,-0.365 -0.36,-0.737 -0.581,-1.081 -0.165,-0.258 -0.37,-0.483 -0.559,-0.724 -0.194,-0.25 -0.359,-0.523 -0.575,-0.754 0.302,-0.07 0.575,-0.215 0.871,-0.307 0.087,-0.021 0.161,-0.058 0.242,-0.087 0.575,-0.192 1.149,-0.396 1.688,-0.682 0.688,-0.349 1.344,-0.77 1.945,-1.274 l 18.854,-15.921 v 192.745 h -53.616 v 0.013 z"
   id="path4-1"
   style="fill:#ffff00;stroke:#030303;stroke-width:6.44396;stroke-dasharray:none;stroke-opacity:1" /> <path
   d="m 230.168,132.041 c -0.143,0.749 -0.132,1.494 0.037,2.236 v 141.7 c 0,0.21 -0.157,0.368 -0.367,0.368 l -29.104,-0.368 -0.01,-140.549 c 0,-1.581 -0.693,-3.084 -1.901,-4.106 l -8.44,-7.128 c -0.021,-0.01 -0.451,-0.37 -0.462,-0.386 -0.504,-0.409 -1.06,-0.716 -1.644,-0.921 -0.236,-0.084 -0.482,-0.074 -0.729,-0.123 -0.346,-0.069 -0.693,-0.176 -1.05,-0.176 -0.005,0 -0.01,0 -0.01,0 -0.515,0 -1.008,0.113 -1.491,0.257 -0.111,0.032 -0.221,0.022 -0.326,0.061 -0.588,0.208 -1.144,0.524 -1.647,0.944 l -27.788,22.995 -12.268,-15.1 c 0,-0.016 0.01,-0.069 0.01,-0.069 l 40.97,-34.606 c 0.912,-0.163 4.119,-0.163 5.132,0.016 z"
   id="path5"
   style="fill:#ffff00;stroke:#030303;stroke-width:6.44396;stroke-dasharray:none;stroke-opacity:1" /> <path
   d="m 182.635,83.237 -46.639,40.258 c -2.267,1.919 -3.662,4.602 -3.908,7.562 -0.247,2.958 0.672,5.838 2.585,8.103 l 12.344,14.62 c 0.031,0.034 0.062,0.07 0.089,0.102 h -18.809 l -0.349,-74.25 h 54.686 v 3.605 z"
   id="path6"
   style="fill:#ffff00;stroke:#030303;stroke-width:6.44396;stroke-dasharray:none;stroke-opacity:1" /> <polygon
   points="252.41,68.88 188.01,68.88 122.548,68.88 58.633,68.88 58.633,45.111 117.72,0 252.41,0 "
   id="polygon6"
   style="fill:#ffff00;stroke:#030303;stroke-width:6.44396;stroke-dasharray:none;stroke-opacity:1" /> </g> </g></g><g
       id="SVGRepo_iconCarrier-5"
       transform="matrix(0.02750077,0,0,0.02504399,23.340602,-2.8265415)"
       style="display:none;fill:#ffff00;stroke:#030303;stroke-width:6.44396;stroke-dasharray:none;stroke-opacity:1"
       inkscape:label="Desintalada"><path
         d="M 512,128 C 300.8,128 128,300.8 128,512 128,723.2 300.8,896 512,896 723.2,896 896,723.2 896,512 896,300.8 723.2,128 512,128 Z m 0,85.33333 c 66.13333,0 128,23.46667 179.2,59.73334 L 273.06667,691.2 C 236.8,640 213.33333,578.13333 213.33333,512 c 0,-164.26667 134.4,-298.66667 298.66667,-298.66667 z m 0,597.33334 c -66.13333,0 -128,-23.46667 -179.2,-59.73334 L 750.93333,332.8 C 787.2,384 810.66667,445.86667 810.66667,512 c 0,164.26667 -134.4,298.66667 -298.66667,298.66667 z"
         fill="#d50000"
         id="path1-6"
         style="display:inline" /></g><g
       id="SVGRepo_iconCarrier-0"
       transform="matrix(0.04738777,0,0,0.04840718,25.054872,-2.5561692)"
       style="display:none;fill:#000000;fill-opacity:1;stroke:#ffffff;stroke-width:6.44396;stroke-dasharray:none;stroke-opacity:1"
       inkscape:label="Vandalizada"><path
         fill="#ffffff"
         d="m 70.533,100.452 c -22.862,27.542 -36.27,64.923 -37.766,96.702 -0.9,19.145 9.6,42.616 25.276,61.47 15.674,18.855 36.465,32.678 51.753,35.028 11.256,0.74 19.522,-9.182 25.182,-16.5 9.537,-12.442 19.204,-30.678 29.36,-49.014 10.155,-18.336 20.77,-36.82 33.798,-50.467 13.028,-13.645 30.24,-22.73 49.442,-17.89 3.34,1.09 3.565,1.663 12.38,8.788 12.605,10.736 26.244,21.81 41.694,39.33 l 3.803,3.486 10.238,-6.06 c -20.92,-23.726 -38.623,-51.403 -57.006,-76.168 -27.153,-36.58 -54.84,-65.76 -94.205,-69.893 -36.138,-3.317 -74.585,18.428 -93.95,41.19 z m 266.053,-2.414 c -3.507,0.063 -7.26,0.632 -11.217,1.733 -7.08,1.97 -14.577,5.722 -21.718,11.09 l 60.545,12.47 c -0.844,-8.415 -4.142,-15.068 -9.524,-19.503 -4.425,-3.646 -10.055,-5.63 -16.6,-5.785 -0.49,-0.01 -0.987,-0.013 -1.487,-0.004 z m 12.787,33.34 -6.83,15.805 18.148,9.95 z m -51.254,21.785 c 9.177,12.81 18.397,25.33 28.04,36.72 7.273,-4.386 14.418,-10.424 20.662,-18 a 86.045,86.045 0 0 0 2.713,-3.49 z m -62.702,23.266 c -8.527,0.283 -15.98,4.993 -24.262,13.67 -29.706,32.65 -56.175,92.534 -24.877,134.35 11.81,14.805 71.805,33.64 129.122,34.264 38.29,26.563 62.975,62.86 93.86,94.36 18.564,-26.89 34.903,-54.124 70.025,-78.467 L 459.423,361.2 c -26.72,8.057 -36.142,26.154 -50.656,41.217 -18.296,-25.715 -41.06,-49.166 -65.555,-69.527 -17.72,-14.73 -38.605,-25.1 -58.11,-37.434 2.437,-0.69 -6.538,-19.77 -7.556,-21.99 -29.352,-7.035 -49.364,-22.817 -62.138,-39.367 l 14.25,-11 c 13.5,17.492 35.288,33.754 73.69,35.933 19.65,-2.818 29.578,-6.955 35.335,-11.704 5.626,-4.64 8.615,-10.964 12.895,-20.618 1.095,-6.312 -0.25,-7.85 -2.84,-10.1 -1.95,-1.696 -5.246,-3.2 -8.787,-4.732 l -39.023,23.104 -4.886,-6.094 c -17.46,-21.77 -31.722,-33.02 -46.578,-45.623 -3.633,-3.94 -7.452,-6.648 -12.324,-6.836 a 25,25 0 0 0 -1.72,0 z M 109.8,312.53 c -20.436,15.367 -42.69,27.405 -71.017,28.307 l 2.978,27.315 58.107,-18.873 c 19.65,23.613 32.977,51.093 65.314,68.364 37.673,-12.64 57.61,-32.233 77.46,-50.98 -21.403,-6.467 -42.72,-14.485 -61.496,-24.495 l -14.232,34.423 z"
         id="path1-9"
         style="fill:#000000;fill-opacity:1;stroke:#ffffff;stroke-opacity:1" /></g></g></svg>
