<?xml version="1.0" encoding="UTF-8" standalone="no"?>
<!-- Created with Inkscape (http://www.inkscape.org/) -->

<svg
   width="48"
   height="48"
   viewBox="0 0 48 48"
   version="1.1"
   id="svg1"
   xml:space="preserve"
   sodipodi:docname="estacionVandalizada.svg"
   inkscape:version="1.3.2 (091e20ef0f, 2023-11-25)"
   xmlns:inkscape="http://www.inkscape.org/namespaces/inkscape"
   xmlns:sodipodi="http://sodipodi.sourceforge.net/DTD/sodipodi-0.dtd"
   xmlns="http://www.w3.org/2000/svg"
   xmlns:svg="http://www.w3.org/2000/svg"><sodipodi:namedview
     id="namedview1"
     pagecolor="#505050"
     bordercolor="#ffffff"
     borderopacity="1"
     inkscape:showpageshadow="0"
     inkscape:pageopacity="0"
     inkscape:pagecheckerboard="1"
     inkscape:deskcolor="#505050"
     inkscape:zoom="5.6875"
     inkscape:cx="26.285714"
     inkscape:cy="16.175824"
     inkscape:window-width="1360"
     inkscape:window-height="743"
     inkscape:window-x="0"
     inkscape:window-y="1"
     inkscape:window-maximized="1"
     inkscape:current-layer="svg1" /><defs
     id="defs1" /><g
     id="layer1"
     style="display:inline"><g
       style="display:inline;fill:#ffffff;stroke:#ffffff;stroke-width:0.00064"
       id="g1"
       transform="matrix(0.86864303,0,0,0.80838892,-5.6384868,-1.7789678)"><g
         id="SVGRepo_tracerCarrier"
         stroke-linecap="round"
         stroke-linejoin="round"
         stroke="#000000"
         stroke-width="0.128"
         style="display:inline">                    <path
   d="m 43.2,14.3 c -1.1,-0.5 -2.3,-0.4 -3.4,0 -1.1,0.5 -1.9,1.3 -2.3,2.3 L 30.4,13.2 26.9,5 C 26.8,4.8 26.6,4.6 26.4,4.5 c -0.2,-0.1 -0.5,-0.1 -0.8,0 -9.5,4 -14,15 -9.9,24.6 0.9,2 2,3.8 3.5,5.4 V 42 c -3.9,1.6 -6.6,5.1 -6.9,9 H 12 c -2.8,0 -5,2.2 -5,5 v 4 c 0,0.6 0.4,1 1,1 h 32 c 0.6,0 1,-0.4 1,-1 v -4 c 0,-2.8 -2.2,-5 -5,-5 h -0.1 c -0.4,-3.9 -3,-7.3 -6.9,-9 v -1.9 c 1.2,0.3 2.5,0.4 3.7,0.4 2.5,0 5,-0.5 7.3,-1.5 0.5,-0.2 0.7,-0.8 0.5,-1.3 L 37,29.5 39.6,22.6 c 0,0 0.1,0 0.1,0.1 0.5,0.2 1.1,0.3 1.7,0.3 0.6,0 1.2,-0.1 1.8,-0.4 2.3,-1 3.4,-3.6 2.4,-5.9 -0.4,-1.1 -1.3,-1.9 -2.4,-2.4 z M 21,28 c 0,-1.7 1.3,-3 3,-3 1.7,0 3,1.3 3,3 v 17 c 0,1.7 -1.3,3 -3,3 -1.7,0 -3,-1.3 -3,-3 z m 18,28 v 3 H 9 v -3 c 0,-1.7 1.3,-3 3,-3 h 24 c 1.7,0 3,1.3 3,3 z M 33.9,51 H 14.1 c 0.3,-2.9 2.2,-5.4 4.9,-6.8 V 45 c 0,2.8 2.2,5 5,5 2.8,0 5,-2.2 5,-5 v -0.8 c 2.8,1.4 4.6,3.9 4.9,6.8 z M 29,38.1 V 28 c 0,-2.8 -2.2,-5 -5,-5 -2.8,0 -5,2.2 -5,5 v 3.3 c -0.6,-0.9 -1.2,-1.9 -1.7,-3 -3.5,-8.2 0.1,-17.6 8,-21.5 l 3.2,7.6 c 0,0 0,0 0,0 L 35,29.9 c 0,0 0,0 0,0 l 3.2,7.6 c -2.9,1.1 -6.1,1.3 -9.2,0.6 z m 2.4,-22 5.6,2.6 c 0,0.5 0.1,1 0.3,1.5 0.2,0.4 0.4,0.8 0.7,1.1 l -2,5.5 z m 11.1,4.7 c -0.6,0.3 -1.3,0.3 -1.9,0 -0.6,-0.3 -1.1,-0.7 -1.4,-1.3 -0.5,-1.3 0.1,-2.7 1.3,-3.3 0.3,-0.1 0.6,-0.2 1,-0.2 0.3,0 0.6,0.1 0.9,0.2 0.6,0.3 1.1,0.7 1.4,1.3 0.5,1.3 -0.1,2.8 -1.3,3.3 z"
   id="path1"
   style="display:inline;fill:#ffffff;fill-opacity:1;stroke:#040404;stroke-width:0.473941;stroke-dasharray:none;stroke-opacity:1" /><path
   style="fill:#ffffff;fill-opacity:1;stroke:#000000;stroke-width:0;stroke-dasharray:none;stroke-opacity:1"
   d="m 20.196737,28.866621 -0.397747,-0.07661 v -4.460802 c 0,-4.437653 -0.0024,-4.465538 -0.454872,-5.373609 -0.834185,-1.673991 -2.363479,-2.440863 -4.583264,-2.298298 -1.370182,0.088 -2.073985,0.38151 -2.903217,1.210742 -0.87523,0.87523 -1.136311,1.5361 -1.251693,3.168383 L 10.49973,22.539028 9.778461,21.036427 C 8.8220718,19.044003 8.5772555,17.958426 8.5824757,15.733126 8.5858304,14.303091 8.6804462,13.574029 8.9946168,12.557375 10.043314,9.1637992 12.082892,6.5398603 15.078117,4.7308852 l 1.094132,-0.660804 0.374814,0.8375807 c 0.206148,0.4606693 2.622406,5.8094251 5.369462,11.8861241 2.747055,6.076699 5.032354,11.179745 5.078441,11.340103 0.133134,0.463234 -1.976701,0.862642 -4.402446,0.833415 -1.098919,-0.01324 -2.177022,-0.05855 -2.395783,-0.100683 z"
   id="path7"
   transform="matrix(1.1512209,0,0,1.2370283,6.4911438,2.2006336)" /><path
   style="fill:#ffffff;fill-opacity:1;stroke:#000000;stroke-width:0;stroke-dasharray:none;stroke-opacity:1"
   d="M 14.189811,36.507465 C 13.875738,36.37093 13.457007,35.996183 13.259297,35.674696 12.910543,35.1076 12.901216,34.864965 12.946457,27.536225 l 0.04663,-7.55395 0.577924,-0.577778 c 0.525462,-0.525331 0.67513,-0.577779 1.648768,-0.577779 1.010817,0 1.104765,0.03701 1.675979,0.660316 l 0.605135,0.660317 -6.61e-4,7.471411 c -6.35e-4,7.182048 -0.01448,7.494075 -0.357424,8.056574 -0.367914,0.603451 -1.270457,1.099442 -1.978529,1.087297 -0.221884,-0.0038 -0.660394,-0.118631 -0.974468,-0.255168 z"
   id="path8"
   transform="matrix(1.1512209,0,0,1.2370283,6.4911438,2.2006336)" /><path
   style="fill:#ffffff;fill-opacity:1;stroke:#000000;stroke-width:0;stroke-dasharray:none;stroke-opacity:1"
   d="m 7.1007541,38.581513 c 0.09788,-0.364602 0.3631937,-0.983847 0.5895855,-1.376101 0.4230224,-0.732942 1.8592078,-2.180678 2.5074314,-2.527596 0.3403,-0.182124 0.372512,-0.136783 0.480348,0.676123 0.196334,1.480039 1.575739,2.945681 3.181357,3.380248 0.984658,0.266502 2.705309,0.104667 3.558228,-0.334667 1.352739,-0.69679 2.381286,-2.161918 2.381286,-3.392057 0,-0.294804 0.049,-0.536008 0.108898,-0.536008 0.250006,0 1.825655,1.279434 2.2305,1.811175 0.534894,0.702554 1.105517,1.821226 1.262807,2.47566 l 0.116841,0.486136 H 15.220413 6.9227901 Z"
   id="path9"
   transform="matrix(1.1512209,0,0,1.2370283,6.4911438,2.2006336)" /><path
   style="fill:#ffffff;fill-opacity:1;stroke:#000000;stroke-width:0;stroke-dasharray:none;stroke-opacity:1"
   d="m 2.4774797,44.326756 c 0.00302,-1.48353 0.213102,-1.998972 1.0425777,-2.557956 L 4.1181485,41.365746 H 15.202796 26.287442 l 0.598092,0.403054 c 0.829475,0.558984 1.03956,1.074426 1.042578,2.557956 l 0.0026,1.281631 H 15.202796 2.4748737 Z"
   id="path10"
   transform="matrix(1.1512209,0,0,1.2370283,6.4911438,2.2006336)" /> <g
   id="g5"
   style="display:none;fill:#ffffff;stroke:#040404;stroke-width:0.475126;stroke-dasharray:none;stroke-opacity:1"><path
     d="m 43.5,10.2 c -0.5,-0.1 -1.1,0.2 -1.2,0.8 -0.1,0.5 0.2,1.1 0.8,1.2 1.9,0.4 3.4,1.7 4.2,3.5 0.8,1.8 0.6,3.8 -0.4,5.4 -0.3,0.5 -0.2,1.1 0.3,1.4 0.2,0.1 0.4,0.2 0.5,0.2 0.3,0 0.7,-0.2 0.8,-0.5 1.4,-2.2 1.6,-4.9 0.6,-7.3 -1,-2.4 -3.1,-4.2 -5.6,-4.7 z"
     id="path2"
     style="display:inline;fill:#00ff00;stroke:#040404;stroke-width:0.475126;stroke-dasharray:none;stroke-opacity:1" /><path
     d="m 45,6.6 c -0.5,-0.1 -1.1,0.2 -1.2,0.7 -0.1,0.5 0.2,1.1 0.7,1.2 2.8,0.8 5.1,2.8 6.3,5.6 1.2,2.8 1.1,5.9 -0.4,8.5 -0.3,0.5 -0.1,1.1 0.4,1.4 0.2,0.1 0.3,0.1 0.5,0.1 0.4,0 0.7,-0.2 0.9,-0.5 1.7,-3.1 1.9,-6.8 0.4,-10.2 C 51.2,10 48.4,7.6 45,6.6 Z"
     id="path3"
     style="display:inline;fill:#00ff00;stroke:#040404;stroke-width:0.475126;stroke-dasharray:none;stroke-opacity:1" /><path
     d="M 56,11.9 C 54.2,7.6 50.7,4.4 46.3,3 45.8,2.8 45.2,3.1 45,3.6 c -0.2,0.5 0.1,1.1 0.6,1.3 3.8,1.2 6.9,4.1 8.4,7.8 1.6,3.7 1.5,7.9 -0.3,11.5 -0.2,0.5 0,1.1 0.5,1.3 0.1,0.1 0.3,0.1 0.4,0.1 0.4,0 0.7,-0.2 0.9,-0.6 2.2,-4 2.3,-8.8 0.5,-13.1 z"
     id="path4"
     style="display:inline;fill:#00ff00;stroke:#040404;stroke-width:0.475126;stroke-dasharray:none;stroke-opacity:1" /></g></g></g><g
       id="g3"
       transform="matrix(0.46521618,-0.77266532,0.79561105,0.51496693,12.879399,36.049475)"
       style="display:none;fill:#ff0000"><g
         id="SVGRepo_tracerCarrier-2"
         stroke-linecap="round"
         stroke-linejoin="round"
         stroke="#000000"
         stroke-width="0.72"
         transform="rotate(56.182696,29.412656,35.962976)"
         style="display:inline;fill:#ff0000"><path
           d="M 1.33309,8.07433 C 0.92156,8.44266 0.886539,9.07485 1.25487,9.48638 1.62319,9.89791 2.25539,9.93293 2.66691,9.5646 Z M 21.3331,9.5646 c 0.4115,0.36833 1.0437,0.33331 1.412,-0.07822 0.3684,-0.41153 0.3333,-1.04372 -0.0782,-1.41205 z M 12,19 c -0.5523,0 -1,0.4477 -1,1 0,0.5523 0.4477,1 1,1 z m 0.01,2 c 0.5523,0 1,-0.4477 1,-1 0,-0.5523 -0.4477,-1 -1,-1 z m 2.6805,-3.96 c 0.4085,0.3716 1.041,0.3417 1.4126,-0.0668 0.3717,-0.4086 0.3417,-1.041 -0.0668,-1.4127 z m 3.3634,-3.6997 c 0.4085,0.3716 1.041,0.3417 1.4126,-0.0669 0.3716,-0.4085 0.3417,-1.041 -0.0668,-1.4126 z M 7.96372,15.5605 C 7.55517,15.9322 7.52524,16.5646 7.89687,16.9732 8.2685,17.3817 8.90095,17.4116 9.3095,17.04 Z M 4.60034,11.8608 c -0.40855,0.3716 -0.43849,1.0041 -0.06686,1.4126 0.37163,0.4086 1.00408,0.4385 1.41263,0.0669 z M 10.5705,4.06305 C 10.0204,4.1118 9.61391,4.59729 9.66266,5.14741 9.71141,5.69754 10.1969,6.10399 10.747,6.05525 Z m 6.7688,6.31675 c -0.4826,-0.2684 -1.0915,-0.0948 -1.3599,0.3879 -0.2684,0.4827 -0.0947,1.0916 0.3879,1.36 z M 3.70711,2.29289 c -0.39053,-0.39052 -1.02369,-0.39052 -1.41422,0 -0.39052,0.39053 -0.39052,1.02369 0,1.41422 z M 20.2929,21.7071 c 0.3905,0.3905 1.0237,0.3905 1.4142,0 0.3905,-0.3905 0.3905,-1.0237 0,-1.4142 z M 12,6 c 3.5863,0 6.8556,1.34716 9.3331,3.5646 L 22.6669,8.07433 C 19.8369,5.54138 16.0972,4 12,4 Z m 0,15 h 0.01 V 19 H 12 Z m 0,-5 c 1.0367,0 1.9793,0.3931 2.6905,1.04 l 1.3458,-1.4795 C 14.9713,14.5918 13.5536,14 12,14 Z M 9.3095,17.04 C 10.0207,16.3931 10.9633,16 12,16 v -2 c -1.5536,0 -2.97128,0.5918 -4.03628,1.5605 z M 10.747,6.05525 C 11.1596,6.01869 11.5775,6 12,6 V 4 c -0.4815,0 -0.9583,0.0213 -1.4295,0.06305 z m 5.6203,6.07245 c 0.6084,0.3383 1.1739,0.7463 1.6866,1.2126 l 1.3458,-1.4795 c -0.6246,-0.5681 -1.3153,-1.0667 -2.0604,-1.481 z M 2.29289,3.70711 5.46648,6.8807 6.8807,5.46648 3.70711,2.29289 Z M 2.66691,9.5646 C 3.81213,8.53961 5.12648,7.70074 6.56232,7.09494 L 5.78486,5.25224 C 4.14251,5.94517 2.64069,6.904 1.33309,8.07433 Z M 5.46648,6.8807 9.46042,10.8746 10.8746,9.46042 6.8807,5.46648 Z M 9.46042,10.8746 20.2929,21.7071 21.7071,20.2929 10.8746,9.46042 Z M 5.94611,13.3403 C 7.15939,12.2367 8.67355,11.4612 10.3496,11.1508 L 9.98543,9.18424 C 7.93271,9.5644 6.08108,10.5139 4.60034,11.8608 Z"
           fill="#ffffff"
           id="path1-7"
           style="display:inline;fill:#ff0000" /></g><g
         id="SVGRepo_iconCarrier"
         transform="rotate(56.182696,29.412656,35.962976)"
         style="display:inline;fill:#ff0000"><path
           d="M 1.33309,8.07433 C 0.92156,8.44266 0.886539,9.07485 1.25487,9.48638 1.62319,9.89791 2.25539,9.93293 2.66691,9.5646 Z M 21.3331,9.5646 c 0.4115,0.36833 1.0437,0.33331 1.412,-0.07822 0.3684,-0.41153 0.3333,-1.04372 -0.0782,-1.41205 z M 12,19 c -0.5523,0 -1,0.4477 -1,1 0,0.5523 0.4477,1 1,1 z m 0.01,2 c 0.5523,0 1,-0.4477 1,-1 0,-0.5523 -0.4477,-1 -1,-1 z m 2.6805,-3.96 c 0.4085,0.3716 1.041,0.3417 1.4126,-0.0668 0.3717,-0.4086 0.3417,-1.041 -0.0668,-1.4127 z m 3.3634,-3.6997 c 0.4085,0.3716 1.041,0.3417 1.4126,-0.0669 0.3716,-0.4085 0.3417,-1.041 -0.0668,-1.4126 z M 7.96372,15.5605 C 7.55517,15.9322 7.52524,16.5646 7.89687,16.9732 8.2685,17.3817 8.90095,17.4116 9.3095,17.04 Z M 4.60034,11.8608 c -0.40855,0.3716 -0.43849,1.0041 -0.06686,1.4126 0.37163,0.4086 1.00408,0.4385 1.41263,0.0669 z M 10.5705,4.06305 C 10.0204,4.1118 9.61391,4.59729 9.66266,5.14741 9.71141,5.69754 10.1969,6.10399 10.747,6.05525 Z m 6.7688,6.31675 c -0.4826,-0.2684 -1.0915,-0.0948 -1.3599,0.3879 -0.2684,0.4827 -0.0947,1.0916 0.3879,1.36 z M 3.70711,2.29289 c -0.39053,-0.39052 -1.02369,-0.39052 -1.41422,0 -0.39052,0.39053 -0.39052,1.02369 0,1.41422 z M 20.2929,21.7071 c 0.3905,0.3905 1.0237,0.3905 1.4142,0 0.3905,-0.3905 0.3905,-1.0237 0,-1.4142 z M 12,6 c 3.5863,0 6.8556,1.34716 9.3331,3.5646 L 22.6669,8.07433 C 19.8369,5.54138 16.0972,4 12,4 Z m 0,15 h 0.01 V 19 H 12 Z m 0,-5 c 1.0367,0 1.9793,0.3931 2.6905,1.04 l 1.3458,-1.4795 C 14.9713,14.5918 13.5536,14 12,14 Z M 9.3095,17.04 C 10.0207,16.3931 10.9633,16 12,16 v -2 c -1.5536,0 -2.97128,0.5918 -4.03628,1.5605 z M 10.747,6.05525 C 11.1596,6.01869 11.5775,6 12,6 V 4 c -0.4815,0 -0.9583,0.0213 -1.4295,0.06305 z m 5.6203,6.07245 c 0.6084,0.3383 1.1739,0.7463 1.6866,1.2126 l 1.3458,-1.4795 c -0.6246,-0.5681 -1.3153,-1.0667 -2.0604,-1.481 z M 2.29289,3.70711 5.46648,6.8807 6.8807,5.46648 3.70711,2.29289 Z M 2.66691,9.5646 C 3.81213,8.53961 5.12648,7.70074 6.56232,7.09494 L 5.78486,5.25224 C 4.14251,5.94517 2.64069,6.904 1.33309,8.07433 Z M 5.46648,6.8807 9.46042,10.8746 10.8746,9.46042 6.8807,5.46648 Z M 9.46042,10.8746 20.2929,21.7071 21.7071,20.2929 10.8746,9.46042 Z M 5.94611,13.3403 C 7.15939,12.2367 8.67355,11.4612 10.3496,11.1508 L 9.98543,9.18424 C 7.93271,9.5644 6.08108,10.5139 4.60034,11.8608 Z"
           fill="#ffffff"
           id="path2-0"
           style="display:inline;fill:#ff0000" /></g></g><g
       id="g47"
       transform="matrix(0.07514092,0,0,0.07200696,37.747094,10.811738)"
       style="display:none;fill:#ffff00;stroke:#030303;stroke-width:6.44396;stroke-dasharray:none;stroke-opacity:1"><g
         id="SVGRepo_iconCarrier-4"
         transform="translate(-144,-146)"
         style="fill:#ffff00;stroke:#030303;stroke-width:6.44396;stroke-dasharray:none;stroke-opacity:1"> <g
   id="g6"
   style="fill:#ffff00;stroke:#030303;stroke-width:6.44396;stroke-dasharray:none;stroke-opacity:1"> <path
   d="m 251.879,164.637 21.413,0.36 v 110.979 c 0,0.205 -0.152,0.363 -0.347,0.363 l -21.428,-0.363 z"
   id="path1-5"
   style="fill:#ffff00;stroke:#030303;stroke-width:6.44396;stroke-dasharray:none;stroke-opacity:1" /> <polygon
   points="150.143,164.997 149.778,184.502 122.957,184.502 94.962,184.134 95.321,164.632 122.957,164.632 "
   id="polygon1"
   style="fill:#ffff00;stroke:#030303;stroke-width:6.44396;stroke-dasharray:none;stroke-opacity:1" /> <path
   d="m 95.311,245.735 c -0.113,0 -0.215,0.031 -0.328,0.031 l -0.027,-0.398 0.359,-19.497 h 27.828 l 26.99,0.358 -0.36,19.495 z"
   id="path2-03"
   style="fill:#ffff00;stroke:#030303;stroke-width:6.44396;stroke-dasharray:none;stroke-opacity:1" /> <path
   d="m 94.962,214.754 0.359,-19.503 h 27.636 l 27.195,0.363 -0.369,19.496 -54.462,0.01 c -0.112,0 -0.22,0.033 -0.338,0.033 z"
   id="path3-6"
   style="fill:#ffff00;stroke:#030303;stroke-width:6.44396;stroke-dasharray:none;stroke-opacity:1" /> <polygon
   points="149.778,276.345 122.962,276.345 122.952,276.351 95.321,276.351 95.321,281.726 94.956,275.987 95.321,256.486 123.153,256.481 150.143,256.843 "
   id="polygon3"
   style="fill:#ffff00;stroke:#030303;stroke-width:6.44396;stroke-dasharray:none;stroke-opacity:1" /> <path
   d="m 127.922,331.925 v -39.513 c 0.263,-0.634 0.405,-1.321 0.405,-2.046 v -3.265 h 21.446 c 6.135,0 11.116,-4.988 11.116,-11.114 v -19.145 c 0,-0.943 -0.149,-1.837 -0.37,-2.72 -0.071,-0.252 -0.149,-0.493 -0.236,-0.745 -0.215,-0.649 -0.483,-1.26 -0.805,-1.857 -0.077,-0.127 -0.108,-0.295 -0.185,-0.42 0.066,-0.104 0.087,-0.227 0.145,-0.336 0.357,-0.641 0.646,-1.308 0.871,-2.006 0.077,-0.229 0.148,-0.45 0.205,-0.682 0.226,-0.883 0.375,-1.786 0.375,-2.719 l -0.005,-19.142 c 0,-0.938 -0.149,-1.841 -0.375,-2.714 -0.066,-0.25 -0.144,-0.486 -0.226,-0.729 -0.215,-0.66 -0.488,-1.275 -0.812,-1.867 -0.076,-0.138 -0.102,-0.289 -0.178,-0.41 0.077,-0.125 0.103,-0.273 0.168,-0.398 0.344,-0.62 0.627,-1.265 0.843,-1.942 0.082,-0.241 0.163,-0.478 0.22,-0.725 0.216,-0.872 0.36,-1.763 0.36,-2.677 l 0.005,-19.14 c 0,-0.95 -0.149,-1.854 -0.375,-2.729 -0.066,-0.252 -0.144,-0.482 -0.226,-0.725 -0.215,-0.656 -0.483,-1.271 -0.805,-1.869 -0.082,-0.13 -0.113,-0.294 -0.189,-0.431 0.082,-0.131 0.113,-0.294 0.189,-0.424 0.322,-0.589 0.585,-1.203 0.795,-1.844 0.087,-0.252 0.165,-0.493 0.236,-0.751 0.221,-0.877 0.37,-1.769 0.37,-2.714 l 0.005,-19.136 c 0,-0.746 -0.079,-1.478 -0.221,-2.181 -0.047,-0.242 -0.139,-0.462 -0.202,-0.699 -0.124,-0.451 -0.244,-0.908 -0.42,-1.338 -0.113,-0.271 -0.262,-0.512 -0.394,-0.775 -0.182,-0.365 -0.36,-0.737 -0.581,-1.081 -0.165,-0.258 -0.37,-0.483 -0.559,-0.724 -0.194,-0.25 -0.359,-0.523 -0.575,-0.754 0.302,-0.07 0.575,-0.215 0.871,-0.307 0.087,-0.021 0.161,-0.058 0.242,-0.087 0.575,-0.192 1.149,-0.396 1.688,-0.682 0.688,-0.349 1.344,-0.77 1.945,-1.274 l 18.854,-15.921 v 192.745 h -53.616 v 0.013 z"
   id="path4-1"
   style="fill:#ffff00;stroke:#030303;stroke-width:6.44396;stroke-dasharray:none;stroke-opacity:1" /> <path
   d="m 230.168,132.041 c -0.143,0.749 -0.132,1.494 0.037,2.236 v 141.7 c 0,0.21 -0.157,0.368 -0.367,0.368 l -29.104,-0.368 -0.01,-140.549 c 0,-1.581 -0.693,-3.084 -1.901,-4.106 l -8.44,-7.128 c -0.021,-0.01 -0.451,-0.37 -0.462,-0.386 -0.504,-0.409 -1.06,-0.716 -1.644,-0.921 -0.236,-0.084 -0.482,-0.074 -0.729,-0.123 -0.346,-0.069 -0.693,-0.176 -1.05,-0.176 -0.005,0 -0.01,0 -0.01,0 -0.515,0 -1.008,0.113 -1.491,0.257 -0.111,0.032 -0.221,0.022 -0.326,0.061 -0.588,0.208 -1.144,0.524 -1.647,0.944 l -27.788,22.995 -12.268,-15.1 c 0,-0.016 0.01,-0.069 0.01,-0.069 l 40.97,-34.606 c 0.912,-0.163 4.119,-0.163 5.132,0.016 z"
   id="path5"
   style="fill:#ffff00;stroke:#030303;stroke-width:6.44396;stroke-dasharray:none;stroke-opacity:1" /> <path
   d="m 182.635,83.237 -46.639,40.258 c -2.267,1.919 -3.662,4.602 -3.908,7.562 -0.247,2.958 0.672,5.838 2.585,8.103 l 12.344,14.62 c 0.031,0.034 0.062,0.07 0.089,0.102 h -18.809 l -0.349,-74.25 h 54.686 v 3.605 z"
   id="path6"
   style="fill:#ffff00;stroke:#030303;stroke-width:6.44396;stroke-dasharray:none;stroke-opacity:1" /> <polygon
   points="188.01,68.88 122.548,68.88 58.633,68.88 58.633,45.111 117.72,0 252.41,0 252.41,68.88 "
   id="polygon6"
   style="fill:#ffff00;stroke:#030303;stroke-width:6.44396;stroke-dasharray:none;stroke-opacity:1" /> </g> </g></g><g
       id="SVGRepo_iconCarrier-5"
       transform="matrix(0.02750077,0,0,0.02504399,23.340602,-2.8265415)"
       style="display:none;fill:#ffff00;stroke:#030303;stroke-width:6.44396;stroke-dasharray:none;stroke-opacity:1"><path
         d="M 512,128 C 300.8,128 128,300.8 128,512 128,723.2 300.8,896 512,896 723.2,896 896,723.2 896,512 896,300.8 723.2,128 512,128 Z m 0,85.33333 c 66.13333,0 128,23.46667 179.2,59.73334 L 273.06667,691.2 C 236.8,640 213.33333,578.13333 213.33333,512 c 0,-164.26667 134.4,-298.66667 298.66667,-298.66667 z m 0,597.33334 c -66.13333,0 -128,-23.46667 -179.2,-59.73334 L 750.93333,332.8 C 787.2,384 810.66667,445.86667 810.66667,512 c 0,164.26667 -134.4,298.66667 -298.66667,298.66667 z"
         fill="#d50000"
         id="path1-6"
         style="display:inline" /></g><g
       id="SVGRepo_iconCarrier-0"
       transform="matrix(0.04738777,0,0,0.04840718,25.054872,-2.5561692)"
       style="display:none;fill:#000000;fill-opacity:1;stroke:#ffffff;stroke-width:6.44396;stroke-dasharray:none;stroke-opacity:1"><path
         style="fill:#ffffff;fill-opacity:1;stroke:#000000;stroke-width:0;stroke-dasharray:none;stroke-opacity:1"
         d="m 34.20629,18.054271 c -2.537843,-0.730535 -4.8693,-2.568459 -5.916567,-4.664126 l -0.551785,-1.104165 9.228261,-0.04579 c 5.075544,-0.02518 9.261499,-0.01255 9.30212,0.02807 0.04062,0.04062 -0.150905,0.538523 -0.425618,1.106446 -1.034797,2.139266 -3.517835,4.050228 -6.155383,4.737222 -1.400798,0.364862 -4.112289,0.336334 -5.481028,-0.05767 z m 4.001616,-2.659131 c 0.327018,-0.42896 0.91116,-0.943425 1.298093,-1.143256 0.947121,-0.489138 2.63146,-0.588777 3.539482,-0.209381 0.679414,0.283877 0.701639,0.281351 1.006184,-0.114398 0.472835,-0.614439 0.39333,-0.78911 -0.517513,-1.136964 -1.647427,-0.629158 -4.114296,-0.289938 -5.482915,0.753959 -0.661921,0.504871 -1.635238,1.761625 -1.635238,2.111429 0,0.204369 0.818344,0.617766 1.0848,0.548001 0.06189,-0.0162 0.380089,-0.38043 0.707107,-0.80939 z"
         id="path11"
         transform="matrix(21.102491,0,0,20.658092,-528.72022,52.80558)" /><path
         style="fill:#ffffff;fill-opacity:1;stroke:#000000;stroke-width:0;stroke-dasharray:none;stroke-opacity:1"
         d="m 28.406859,5.9662134 c 0.606426,-1.0909745 2.728232,-3.0467712 3.943276,-3.6347553 2.25214,-1.0898559 4.919538,-1.39736976 7.16651,-0.8261988 2.512783,0.638739 5.031587,2.4227682 6.058858,4.2913936 l 0.409059,0.7440848 h -8.948528 -8.948528 z m 7.10876,-0.338025 c 0.107177,-0.3074475 0.174621,-0.576898 0.149876,-0.5987783 -0.168574,-0.149058 -4.13222,-0.9216706 -4.220131,-0.8226077 -0.06063,0.068325 -0.161356,0.3412041 -0.223827,0.606399 -0.09455,0.401378 -0.04654,0.4987848 0.286535,0.5813142 3.908574,0.9684674 3.754528,0.9594852 4.007547,0.2336728 z m 5.584962,0.1385645 1.767767,-0.4127106 -0.04959,-0.5905645 C 42.791476,4.4386673 42.742837,4.146592 42.710666,4.1144215 42.650842,4.0545976 38.67522,4.9489182 38.564691,5.047063 c -0.03356,0.029799 -0.0074,0.2985168 0.05824,0.5971506 0.143892,0.6551337 0.187208,0.6572761 2.47765,0.1225393 z"
         id="path12"
         transform="matrix(21.102491,0,0,20.658092,-528.72022,52.80558)" /><path
         style="fill:#ffffff;fill-opacity:1;stroke:#000000;stroke-width:0;stroke-dasharray:none;stroke-opacity:1"
         d="m 32.610455,9.8941417 c -0.25686,-0.2838274 -0.289658,-0.4594806 -0.156789,-0.8396893 0.210542,-0.6024676 1.154975,-0.7648813 1.680772,-0.2890415 0.430444,0.3895472 0.426042,0.6915062 -0.01654,1.1340839 -0.453707,0.4537072 -1.094061,0.4514332 -1.507447,-0.00535 z"
         id="path13"
         transform="matrix(21.102491,0,0,20.658092,-528.72022,52.80558)" /><path
         style="fill:#ffffff;fill-opacity:1;stroke:#000000;stroke-width:0;stroke-dasharray:none;stroke-opacity:1"
         d="m 40.098411,10.032077 c -0.701349,-0.5650952 -0.30507,-1.5909899 0.614561,-1.5909899 0.643989,0 1.006328,0.3397184 1.006328,0.9435034 0,0.7601525 -0.990158,1.1556845 -1.620889,0.6474865 z"
         id="path14"
         transform="matrix(21.102491,0,0,20.658092,-528.72022,52.80558)" /><g
         id="SVGRepo_iconCarrier-1"
         transform="matrix(1.5672679,0,0,1.3699844,21.427913,53.167619)"
         style="fill:#000000;fill-opacity:1;stroke:#000000;stroke-width:0.996999;stroke-dasharray:none;stroke-opacity:1"> <g
   id="g2"
   style="fill:#000000;fill-opacity:1;stroke:#000000;stroke-width:0.996999;stroke-dasharray:none;stroke-opacity:1"> <path
   d="M 147.998,0 C 66.392,0 0,66.392 0,147.998 c 0,81.606 66.392,147.998 147.998,147.998 81.606,0 147.998,-66.392 147.998,-147.998 C 295.996,66.392 229.605,0 147.998,0 Z m 0,279.996 c -36.257,0 -69.143,-14.696 -93.023,-38.44 -9.536,-9.482 -17.631,-20.41 -23.934,-32.42 C 26.4,200.294 22.726,190.87 20.175,180.997 H 275.82 c -14.69,56.868 -66.428,98.999 -127.822,98.999 z M 25.037,99.997 C 44.278,50.877 92.14,16 147.998,16 c 34.523,0 65.987,13.328 89.533,35.102 12.208,11.288 22.289,24.844 29.558,39.997 1.395,2.908 2.686,5.877 3.87,8.898 H 25.037 Z m 188.46,40.5 c 0,8.836 -7.164,16 -16,16 -8.836,0 -16,-7.164 -16,-16 0,-8.836 7.164,-16 16,-16 8.836,0 16,7.164 16,16 z m -99,0 c 0,8.836 -7.164,16 -16,16 -8.836,0 -16,-7.164 -16,-16 0,-8.836 7.164,-16 16,-16 8.836,0 16,7.164 16,16 z"
   id="path1-2"
   style="fill:#000000;fill-opacity:1;stroke:#000000;stroke-width:0.996999;stroke-dasharray:none;stroke-opacity:1" /> <rect
   x="70.766998"
   y="69.684998"
   transform="matrix(-0.9689,-0.2473,0.2473,-0.9689,174.7187,177.3174)"
   width="55.459999"
   height="15.999"
   id="rect1"
   style="fill:#000000;fill-opacity:1;stroke:#000000;stroke-width:0.997037;stroke-dasharray:none;stroke-opacity:1" /> <rect
   x="189.498"
   y="49.953999"
   transform="matrix(-0.2473,-0.9689,0.9689,-0.2473,171.0742,288.259)"
   width="15.999"
   height="55.459999"
   id="rect2"
   style="fill:#000000;fill-opacity:1;stroke:#000000;stroke-width:0.997037;stroke-dasharray:none;stroke-opacity:1" /> <path
   d="m 200.159,205.505 c 12.875,-1.788 26.044,1.092 37.084,8.104 l 8.578,-13.506 c -14.238,-9.043 -31.233,-12.752 -47.862,-10.445 -26.732,3.714 -49.436,22.684 -57.84,48.329 l 15.205,4.982 c 6.514,-19.88 24.114,-34.585 44.835,-37.464 z"
   id="path2-7"
   style="fill:#000000;fill-opacity:1;stroke:#000000;stroke-width:0.996999;stroke-dasharray:none;stroke-opacity:1" /> </g> </g></g></g><g
     id="SVGRepo_bgCarrier"
     stroke-width="0"
     transform="matrix(0.04880017,0,0,0.05108491,24.66819,-2.8376802)" /><g
     id="SVGRepo_tracerCarrier-27"
     stroke-linecap="round"
     stroke-linejoin="round"
     transform="matrix(0.04880017,0,0,0.05108491,24.66819,-2.8376802)" /><g
     id="SVGRepo_iconCarrier-09"
     transform="matrix(0.04880017,0,0,0.05108491,24.66819,-2.8376802)"
     style="fill:#000000;fill-opacity:1;stroke:#ffffff;stroke-opacity:1;stroke-width:5.00706264;stroke-dasharray:none"><path
       fill="#000000"
       d="m 70.533,100.452 c -22.862,27.542 -36.27,64.923 -37.766,96.702 -0.9,19.145 9.6,42.616 25.276,61.47 15.674,18.855 36.465,32.678 51.753,35.028 11.256,0.74 19.522,-9.182 25.182,-16.5 9.537,-12.442 19.204,-30.678 29.36,-49.014 10.155,-18.336 20.77,-36.82 33.798,-50.467 13.028,-13.645 30.24,-22.73 49.442,-17.89 3.34,1.09 3.565,1.663 12.38,8.788 12.605,10.736 26.244,21.81 41.694,39.33 l 3.803,3.486 10.238,-6.06 c -20.92,-23.726 -38.623,-51.403 -57.006,-76.168 -27.153,-36.58 -54.84,-65.76 -94.205,-69.893 -36.138,-3.317 -74.585,18.428 -93.95,41.19 z m 266.053,-2.414 c -3.507,0.063 -7.26,0.632 -11.217,1.733 -7.08,1.97 -14.577,5.722 -21.718,11.09 l 60.545,12.47 c -0.844,-8.415 -4.142,-15.068 -9.524,-19.503 -4.425,-3.646 -10.055,-5.63 -16.6,-5.785 -0.49,-0.01 -0.987,-0.013 -1.487,-0.004 z m 12.787,33.34 -6.83,15.805 18.148,9.95 z m -51.254,21.785 c 9.177,12.81 18.397,25.33 28.04,36.72 7.273,-4.386 14.418,-10.424 20.662,-18 a 86.045,86.045 0 0 0 2.713,-3.49 z m -62.702,23.266 c -8.527,0.283 -15.98,4.993 -24.262,13.67 -29.706,32.65 -56.175,92.534 -24.877,134.35 11.81,14.805 71.805,33.64 129.122,34.264 38.29,26.563 62.975,62.86 93.86,94.36 18.564,-26.89 34.903,-54.124 70.025,-78.467 L 459.423,361.2 c -26.72,8.057 -36.142,26.154 -50.656,41.217 -18.296,-25.715 -41.06,-49.166 -65.555,-69.527 -17.72,-14.73 -38.605,-25.1 -58.11,-37.434 2.437,-0.69 -6.538,-19.77 -7.556,-21.99 -29.352,-7.035 -49.364,-22.817 -62.138,-39.367 l 14.25,-11 c 13.5,17.492 35.288,33.754 73.69,35.933 19.65,-2.818 29.578,-6.955 35.335,-11.704 5.626,-4.64 8.615,-10.964 12.895,-20.618 1.095,-6.312 -0.25,-7.85 -2.84,-10.1 -1.95,-1.696 -5.246,-3.2 -8.787,-4.732 l -39.023,23.104 -4.886,-6.094 c -17.46,-21.77 -31.722,-33.02 -46.578,-45.623 -3.633,-3.94 -7.452,-6.648 -12.324,-6.836 a 25,25 0 0 0 -1.72,0 z M 109.8,312.53 c -20.436,15.367 -42.69,27.405 -71.017,28.307 l 2.978,27.315 58.107,-18.873 c 19.65,23.613 32.977,51.093 65.314,68.364 37.673,-12.64 57.61,-32.233 77.46,-50.98 -21.403,-6.467 -42.72,-14.485 -61.496,-24.495 l -14.232,34.423 z"
       id="path1-3"
       style="fill:#000000;fill-opacity:1;stroke:#ffffff;stroke-opacity:1;stroke-width:5.00706264;stroke-dasharray:none" /></g></svg>
